<svg xmlns="http://www.w3.org/2000/svg" fill="#3ee00d" width="64" height="64"><path d="m 42.77997,962.36205 -6.534919,1.68643 -1.475615,7.48354 0.210802,0.63241 c -1.22368,0.67457 -2.426109,1.32806 -3.583671,2.00263 l -0.526997,-0.31603 -7.061933,-2.31884 -4.848484,4.74308 2.42425,7.06193 0.526997,0.6324 c -0.764287,1.01187 -1.501596,2.361 -2.108039,3.37285 l -0.632406,0 -7.378128,1.37024 L 10,995.1422 l 5.691693,5.0593 0.632407,0 c -0.087,1.6864 -0.087,2.9723 0,4.3215 l -0.632407,0 -5.691693,5.0592 1.791827,6.7458 7.378128,1.3702 0.632406,-0.3161 c 0.606443,1.3492 1.343415,2.34 2.108039,3.6892 l -0.526997,0.3159 -2.42425,7.1673 4.848484,5.0593 7.061933,-2.7405 0.526997,-0.3159 c 1.1579,0.6746 2.359991,1.328 3.583671,2.0027 l -0.210802,0.6322 1.475615,7.4836 6.534919,1.6864 4.953894,-5.797 0.210802,-0.3161 4.110668,0 0.210802,0.3161 4.953894,5.797 6.534902,-1.6864 1.475632,-7.4836 -0.210802,-0.6322 c 1.220977,-0.6747 2.321375,-1.3281 3.478262,-2.0027 l 0.527014,0.3159 7.167325,2.7405 4.848484,-5.0593 -2.42425,-7.1673 -0.526997,-0.3159 c 0.762259,-1.3492 1.50092,-2.34 2.108022,-3.6892 l 0.632423,0.3161 7.378128,-1.3702 1.791827,-6.7458 -5.691693,-5.0592 -0.632424,0 c 0.08767,-1.3492 0.08767,-2.6351 0,-4.3215 l 0.632424,0 L 90,995.1422 l -1.791827,-6.42951 -7.378128,-1.37024 -0.632423,0 C 79.59052,986.3306 78.851859,984.98146 78.0896,983.9696 l 0.526997,-0.6324 2.42425,-7.06193 -4.848484,-4.74308 -7.167325,2.31884 -0.527014,0.31603 c -1.156887,-0.67457 -2.257285,-1.32806 -3.478262,-2.00263 l 0.210802,-0.63241 -1.475632,-7.48354 -6.534902,-1.68643 -4.953894,5.7971 -0.210802,0.63243 c -1.403112,-0.3373 -2.707556,-0.3373 -4.110668,0 l -0.210802,-0.63243 -4.953894,-5.7971 z m 6.429509,16.44269 c 1.253867,-0.0623 2.547127,0.0725 3.794473,0.2108 0.500223,0.063 0.979549,0.11605 1.475633,0.21082 1.031138,0.19731 2.054439,0.61484 3.05664,0.9486 l -4.637682,9.16997 c -3.295282,-1.01186 -6.712662,-0.31604 -9.696969,1.37023 l -7.272718,-7.06194 c 1.583964,-1.18048 3.293423,-2.19762 5.059287,-2.95124 0.04257,-0.0169 0.06267,-0.0873 0.10524,-0.10524 0.710535,-0.28468 1.483319,-0.52438 2.213449,-0.73782 0.179432,-0.0554 0.346483,-0.15947 0.527014,-0.2108 0.842769,-0.23915 1.776336,-0.3813 2.635036,-0.52702 0.750874,-0.12754 1.456341,-0.15541 2.213448,-0.2108 0.182473,-0.0135 0.344422,-0.0965 0.526997,-0.10524 z m 14.334651,4.53229 c 1.082694,0.67457 2.190677,1.30698 3.162067,2.31884 0.57612,0.56916 1.076917,1.17821 1.581025,1.79183 0.01689,0.0203 -0.01689,0.0846 0,0.10524 0.484242,0.59379 1.058504,1.16221 1.475632,1.79182 0.01351,0.0236 -0.01351,0.0823 0,0.10525 0.41233,0.62782 0.813528,1.23945 1.15942,1.89723 0.01351,0.027 -0.01351,0.0779 0,0.10524 0.359069,0.69895 0.664148,1.48614 0.948602,2.21343 0.257696,0.65233 0.540308,1.3332 0.737816,2.00265 0.02027,0.064 -0.01689,0.14646 0,0.2108 0.210464,0.75164 0.390353,1.54675 0.527014,2.31884 0.115376,0.64385 0.254317,1.24715 0.316043,1.8972 0.01351,0.1404 -0.01014,0.281 0,0.4216 0.04814,0.6196 0.10524,1.2761 0.10524,1.8973 3.38e-4,0.072 2.37e-4,0.1383 0,0.2108 -6.42e-4,0.072 0.0013,0.1387 0,0.2108 l -10.118573,-1.6865 c -0.273203,-3.03552 -1.572595,-6.0711 -3.899866,-8.4321 -0.202373,0 -0.423293,-0.31603 -0.632423,-0.31603 l 4.637682,-9.06456 z m -32.358366,5.05929 7.272735,7.37812 c -1.759967,2.69828 -2.418676,6.11336 -1.686434,9.48616 l -9.064562,4.743 c -0.09882,-0.292 -0.229013,-0.548 -0.316026,-0.8431 -0.216208,-0.7322 -0.382954,-1.4664 -0.527014,-2.2135 -0.150682,-0.7825 -0.349727,-1.6321 -0.421604,-2.4242 -0.15406,-1.8196 -0.06977,-3.6605 0.210802,-5.4809 0.01689,-0.11098 0.08666,-0.20541 0.10524,-0.31604 0.133283,-0.85647 0.29986,-1.6901 0.527014,-2.52964 0.778696,-2.73518 2.12103,-5.39657 3.899866,-7.79974 z m 18.761531,7.27273 c 1.726065,0 3.531389,0.61133 4.848485,1.79183 2.634208,2.69832 2.634208,7.10412 0,9.80232 -2.634192,2.6983 -6.957368,2.6983 -9.59156,0 -2.635221,-2.6982 -2.635221,-7.104 0,-9.80232 1.317096,-1.1805 3.017011,-1.79183 4.743075,-1.79183 z m 12.437414,12.22665 10.223983,1.3702 c -0.209451,0.6989 -0.462586,1.3229 -0.737816,2.0026 -0.06808,0.1727 -0.138688,0.3561 -0.210802,0.5271 -0.230702,0.5323 -0.466049,1.0642 -0.7378,1.5809 -0.205413,0.3969 -0.403292,0.7758 -0.632423,1.1594 -0.172355,0.2865 -0.341432,0.5632 -0.526997,0.8433 -0.34998,0.5311 -0.76204,1.0809 -1.159421,1.5809 -0.09071,0.1149 -0.223285,0.2031 -0.316042,0.3161 -0.51872,0.625 -0.986391,1.2235 -1.581025,1.7918 -0.576358,0.5693 -1.17356,1.0831 -1.791844,1.5811 -0.136999,0.1098 -0.282968,0.2098 -0.421605,0.3161 -0.485796,0.3735 -0.968382,0.7232 -1.475615,1.0539 -0.309641,0.2078 -0.631714,0.4372 -0.948619,0.6325 -0.34079,0.1993 -0.705635,0.3461 -1.054027,0.527 -0.685399,0.3558 -1.397471,0.7693 -2.108039,1.0539 -0.639519,0.2561 -1.347046,0.434 -2.00263,0.6325 l -1.581025,-10.224 c 1.507661,-0.6746 2.984983,-1.2859 4.216078,-2.6349 1.234457,-1.3493 2.191505,-2.7616 2.845838,-4.1108 z m -22.450594,3.3728 c 0.187203,0.3374 0.324134,0.4005 0.527014,0.7379 2.323909,2.3609 5.29117,3.689 8.326746,3.689 l 1.475632,10.1186 c -0.767327,0.042 -1.553541,0.042 -2.318841,0 -0.07213,0 -0.138688,0 -0.210802,0 -0.145445,-0.017 -0.276244,-0.089 -0.421605,-0.1047 -0.606071,-0.068 -1.191601,-0.096 -1.791844,-0.2108 -0.744083,-0.1419 -1.483318,-0.3137 -2.213431,-0.5271 -0.688406,-0.2013 -1.436915,-0.3679 -2.108039,-0.6324 -0.04358,-0.017 -0.06166,-0.088 -0.105241,-0.1048 -1.376827,-0.5513 -2.732827,-1.2894 -4.005258,-2.108 -0.04021,-0.027 -0.06537,-0.078 -0.105241,-0.1047 -1.309139,-0.8538 -2.536552,-1.8129 -3.689064,-2.9513 -0.970714,-1.0119 -1.763667,-2.0447 -2.529643,-3.0566 l 9.169955,-4.743 z" transform="translate(0 -952.362)"/></svg>