<?xml version="1.0" encoding="UTF-8" standalone="no"?>
<svg xmlns="http://www.w3.org/2000/svg" xmlns:xlink="http://www.w3.org/1999/xlink" width="440px" height="790px" viewBox="0 0 440 790" version="1.1">
	<g xmlns="http://www.w3.org/2000/svg" stroke="none" stroke-width="1" fill="none">
    <path style="fill: rgb(216, 216, 216);" transform="matrix(0.300707, 0.499173, -0.499173, 0.300707, 296.655273, -170.97023)" d="M 416.05 312.538 L 429.95 312.538 L 450.014 -6.373 A 430.222 430.222 0 0 1 503.616 0.398 L 443.74 314.28 L 457.202 317.736 L 555.946 13.835 A 430.222 430.222 0 0 1 606.18 33.723 L 470.126 322.853 L 482.306 329.549 L 653.524 59.752 A 430.222 430.222 0 0 1 697.234 91.508 L 493.551 337.719 L 503.683 347.234 L 736.618 128.493 A 430.222 430.222 0 0 1 771.057 170.122 L 512.543 357.943 L 519.99 369.679 L 800.006 215.739 A 430.222 430.222 0 0 1 823.01 264.625 L 525.908 382.256 L 530.204 395.475 L 839.706 316.008 A 430.222 430.222 0 0 1 849.83 369.079 L 532.808 409.128 L 533.681 423 L 853.222 423 A 430.222 430.222 0 0 1 849.83 476.921 L 532.808 436.872 L 530.204 450.525 L 839.706 529.992 A 430.222 430.222 0 0 1 823.01 581.375 L 525.908 463.744 L 519.99 476.321 L 800.006 630.261 A 430.222 430.222 0 0 1 771.057 675.878 L 512.543 488.057 L 503.683 498.766 L 736.618 717.507 A 430.222 430.222 0 0 1 697.234 754.492 L 493.551 508.281 L 482.306 516.451 L 653.524 786.248 A 430.222 430.222 0 0 1 606.18 812.277 L 470.126 523.147 L 457.202 528.264 L 555.946 832.165 A 430.222 430.222 0 0 1 503.616 845.602 L 443.74 531.72 L 429.95 533.462 L 450.014 852.373 A 430.222 430.222 0 0 1 395.986 852.373 L 416.05 533.462 L 402.26 531.72 L 342.384 845.602 A 430.222 430.222 0 0 1 290.054 832.165 L 388.798 528.264 L 375.874 523.147 L 239.82 812.277 A 430.222 430.222 0 0 1 192.476 786.248 L 363.694 516.451 L 352.449 508.281 L 148.766 754.492 A 430.222 430.222 0 0 1 109.382 717.507 L 342.317 498.766 L 333.457 488.057 L 74.943 675.878 A 430.222 430.222 0 0 1 45.994 630.261 L 326.01 476.321 L 320.092 463.744 L 22.99 581.375 A 430.222 430.222 0 0 1 6.294 529.992 L 315.796 450.525 L 313.192 436.872 L -3.83 476.921 A 430.222 430.222 0 0 1 -7.222 423 L 312.319 423 L 313.192 409.128 L -3.83 369.079 A 430.222 430.222 0 0 1 6.294 316.008 L 315.796 395.475 L 320.092 382.256 L 22.99 264.625 A 430.222 430.222 0 0 1 45.994 215.739 L 326.01 369.679 L 333.457 357.943 L 74.943 170.122 A 430.222 430.222 0 0 1 109.382 128.493 L 342.317 347.234 L 352.449 337.719 L 148.766 91.508 A 430.222 430.222 0 0 1 192.476 59.752 L 363.694 329.549 L 375.874 322.853 L 239.82 33.723 A 430.222 430.222 0 0 1 290.054 13.835 L 388.798 317.736 L 402.26 314.28 L 342.384 0.398 A 430.222 430.222 0 0 1 395.986 -6.373 Z M 423 -158.381 A 581.381 581.381 0 0 0 423 1004.381 A 581.381 581.381 0 0 0 423 -158.381" data-bx-shape="cog 423 423 581.381 430.222 110.462 0 25 1@5187351f"/>
        <path style="fill: rgb(216, 216, 216);" transform="matrix(-0.278627, 0.511826, -0.511826, -0.278627, 425.404877, 163.022842)" d="M 265.543 -161.051 L 284.457 -161.051 L 312.023 -89.363 A 284.78 284.78 0 0 1 327.044 -86.984 L 375.414 -146.644 L 393.401 -140.8 L 397.466 -64.102 A 284.78 284.78 0 0 1 411.016 -57.198 L 475.455 -98.991 L 490.756 -87.874 L 470.921 -13.675 A 284.78 284.78 0 0 1 481.675 -2.921 L 555.874 -22.756 L 566.991 -7.455 L 525.198 56.984 A 284.78 284.78 0 0 1 532.102 70.534 L 608.8 74.599 L 614.644 92.586 L 554.984 140.956 A 284.78 284.78 0 0 1 557.363 155.977 L 629.051 183.543 L 629.051 202.457 L 557.363 230.023 A 284.78 284.78 0 0 1 554.984 245.044 L 614.644 293.414 L 608.8 311.401 L 532.102 315.466 A 284.78 284.78 0 0 1 525.198 329.016 L 566.991 393.455 L 555.874 408.756 L 481.675 388.921 A 284.78 284.78 0 0 1 470.921 399.675 L 490.756 473.874 L 475.455 484.991 L 411.016 443.198 A 284.78 284.78 0 0 1 397.466 450.102 L 393.401 526.8 L 375.414 532.644 L 327.044 472.984 A 284.78 284.78 0 0 1 312.023 475.363 L 284.457 547.051 L 265.543 547.051 L 237.977 475.363 A 284.78 284.78 0 0 1 222.956 472.984 L 174.586 532.644 L 156.599 526.8 L 152.534 450.102 A 284.78 284.78 0 0 1 138.984 443.198 L 74.545 484.991 L 59.244 473.874 L 79.079 399.675 A 284.78 284.78 0 0 1 68.325 388.921 L -5.874 408.756 L -16.991 393.455 L 24.802 329.016 A 284.78 284.78 0 0 1 17.898 315.466 L -58.8 311.401 L -64.644 293.414 L -4.984 245.044 A 284.78 284.78 0 0 1 -7.363 230.023 L -79.051 202.457 L -79.051 183.543 L -7.363 155.977 A 284.78 284.78 0 0 1 -4.984 140.956 L -64.644 92.586 L -58.8 74.599 L 17.898 70.534 A 284.78 284.78 0 0 1 24.802 56.984 L -16.991 -7.455 L -5.874 -22.756 L 68.325 -2.921 A 284.78 284.78 0 0 1 79.079 -13.675 L 59.244 -87.874 L 74.545 -98.991 L 138.984 -57.198 A 284.78 284.78 0 0 1 152.534 -64.102 L 156.599 -140.8 L 174.586 -146.644 L 222.956 -86.984 A 284.78 284.78 0 0 1 237.977 -89.363 Z M 275 58.307 A 134.693 134.693 0 0 0 275 327.693 A 134.693 134.693 0 0 0 275 58.307" data-bx-shape="cog 275 193 134.693 284.78 354.051 0.66 20 1@b9112c74"/>
    </g>
</svg>